<svg width="1312" height="187" viewBox="0 0 1312 187" fill="none" xmlns="http://www.w3.org/2000/svg">
<path opacity="0.05" d="M343.443 147.606C226.03 144.016 132.93 187 0 187H1304C1308.42 187 1312 183.418 1312 179V8C1312 3.58172 1308.42 0 1304 0H745.69C725.265 11.1369 672.06 52.3602 623.632 86.2697C561.589 129.713 490.209 152.094 343.443 147.606Z" fill="#7C5AED"/>
<path opacity="0.05" d="M781.5 147.606C662.7 144.016 568.5 187 434 187H1304C1308.42 187 1312 183.418 1312 179V8C1312 3.58172 1308.42 0 1304 0H1188.5C1167.83 11.1369 1114 52.3602 1065 86.2697C1002.22 129.713 930 152.094 781.5 147.606Z" fill="#7C5AED"/>
</svg>
